<?xml version="1.0" encoding="UTF-8" standalone="no"?>
<svg
   xmlns:dc="http://purl.org/dc/elements/1.1/"
   xmlns:cc="http://creativecommons.org/ns#"
   xmlns:rdf="http://www.w3.org/1999/02/22-rdf-syntax-ns#"
   xmlns:svg="http://www.w3.org/2000/svg"
   xmlns="http://www.w3.org/2000/svg"
   xmlns:sodipodi="http://sodipodi.sourceforge.net/DTD/sodipodi-0.dtd"
   xmlns:inkscape="http://www.inkscape.org/namespaces/inkscape"
   version="1.1"
   id="svg10"
   width="400"
   height="400"
   viewBox="0 0 400 400"
   sodipodi:docname="stamp.svg"
   inkscape:version="1.0.1 (3bc2e813f5, 2020-09-07)">
  <title
     id="title757">Toyhouse Thumbnail Stamp</title>
  <metadata
     id="metadata16">
    <rdf:RDF>
      <cc:Work
         rdf:about="">
        <dc:format>image/svg+xml</dc:format>
        <dc:type
           rdf:resource="http://purl.org/dc/dcmitype/StillImage" />
        <dc:title>Toyhouse Thumbnail Stamp</dc:title>
      </cc:Work>
    </rdf:RDF>
  </metadata>
  <defs
     id="defs14" />
  <sodipodi:namedview
     pagecolor="#ffffff"
     bordercolor="#666666"
     borderopacity="1"
     objecttolerance="10"
     gridtolerance="10"
     guidetolerance="10"
     inkscape:pageopacity="0"
     inkscape:pageshadow="2"
     inkscape:window-width="1707"
     inkscape:window-height="955"
     id="namedview12"
     showgrid="false"
     inkscape:zoom="1.8175"
     inkscape:cx="150.57155"
     inkscape:cy="267.01628"
     inkscape:window-x="2762"
     inkscape:window-y="256"
     inkscape:window-maximized="0"
     inkscape:current-layer="layer3"
     inkscape:document-rotation="0"
     showguides="false" />
  <g
     inkscape:groupmode="layer"
     id="layer3"
     inkscape:label="Stamp">
    <path
       style="opacity:0.8;fill:#f3f3f3;fill-opacity:1;stroke:none;stroke-width:1px;stroke-linecap:butt;stroke-linejoin:miter;stroke-opacity:1"
       d="m 234.08573,300.83495 65.77083,-67.2125 20.14086,19.76305 0.35914,-9.36305 20,0.51737 0.97851,31.23263 22.0642,25.3191 -17.04271,0.4309 -1.5,62.5 -91.5,1 v -63.5 z"
       id="path911" />
    <path
       style="fill:#dedede"
       d="m 253.60656,366.83312 -1.27474,-1.55086 -0.47526,-28.75135 c -0.2713,-16.41245 -0.27314,-30.55669 -0.60699,-31.42667 l -0.60699,-1.58179 h -7.70188 -7.70188 l -1.94113,-1.436 -1.94113,-1.43599 26.10914,-26.31401 c 14.36003,-14.4727 29.75793,-30.139 34.21756,-34.814 l 8.1084,-8.5 8.45321,8.85799 8.4532,8.858 1.07925,-0.66701 c 0.59358,-0.36686 1.07924,-1.99046 1.07924,-3.608 0,-1.61754 0.3375,-2.96672 0.75,-2.99819 0.4125,-0.0315 5.37736,-0.20946 11.03301,-0.39556 l 10.28301,-0.33835 1.46699,1.46699 1.46699,1.46699 v 16.1811 16.1811 l 11.97111,11.99747 c 6.58411,6.59861 11.83577,12.44747 11.67036,12.99747 l -0.30075,1 -9.42036,0.5 -9.42036,0.5 -0.26386,31.61235 -0.73614,31.38765 -4.76386,0.85366 c -0.97838,0.17532 -86.26457,0.66823 -88.98614,-0.043 z m 91.25,-35.31067 0.5,-31.5 6.5,-0.2738 c 3.575,-0.15059 7.1485,-0.50697 7.94112,-0.79196 l 1.44112,-0.51815 -10.66793,-10.70805 -10.66792,-10.70804 -0.2732,-16 -0.27319,-16 -7.3425,-0.29568 -7.3425,-0.29567 -1.4075,1.16812 -1.4075,1.16812 v 4.37755 4.37756 l -1.75,0.0331 -1.75,0.0331 -9.26774,-9.7831 -9.26773,-9.78311 -30.49287,30.9394 c -16.77107,17.01667 -30.15059,31.28125 -29.73226,31.69907 0.41833,0.41783 3.9106,0.8951 7.7606,1.0606 l 7,0.30093 0.25289,30.5 c 0.13908,16.775 0.46426,31.06719 0.72261,31.76042 l 0.46973,1.26042 44.27738,-0.26042 44.27739,-0.26041 z m -62.29104,29.37563 c -0.38993,-0.38993 -0.70896,-8.67886 -0.70896,-18.41985 v -17.71089 l -1.26962,-1.05369 c -0.69829,-0.57953 -3.28579,-1.19713 -5.75,-1.37245 l -4.48038,-0.31875 v -5.5 -5.5 h 22.5 22.5 l 0.29571,7.95262 c 0.16264,4.37393 0.78024,8.53643 1.37245,9.25 1.39309,1.67857 7.27059,1.67857 8.66368,0 0.59221,-0.71357 1.20981,-4.87607 1.37245,-9.25 l 0.79571,-7.45262 6,-0.5 6,0.5 0.5,24.5 -1.37537,23.62463 -5.12463,1.37537 -5.33333,-1.16667 -1.45849,-7.78126 c -0.90713,-4.8397 -0.7781,-9.53386 -1.37244,-10.25 -1.39809,-1.68458 -7.27339,-1.68458 -8.67148,0 -0.59434,0.71614 -1.21194,5.32864 -1.37244,10.25 l -0.29182,8.94793 h -6.5 -6.5 l -0.27216,-18.14594 -0.27215,-18.14595 -1.47785,-1.2265 -1.47784,-1.2265 -1.47784,1.2265 -1.47785,1.2265 -0.27215,18.14595 -0.27216,18.14594 -6.04104,0.29229 c -3.32257,0.16076 -6.36007,-0.0267 -6.75,-0.41666 z m 9.29104,-21.07868 0.5,-18.20304 1.11049,-1.10745 1.11049,-1.10744 4.88951,0.31049 4.88951,0.31049 0.5,18.3929 0.5,18.3929 1.61408,1.01625 c 0.88774,0.55893 2.35024,0.73375 3.25,0.38848 l 1.63592,-0.62776 v -8.90894 -8.90894 l 1.4075,-1.16812 1.4075,-1.16812 7.3425,0.29567 7.3425,0.29568 0.5,9.39568 0.5,9.39568 1.75,1.0992 1.75,1.09921 1.75,-1.10283 1.75,-1.10282 0.28398,-18.89206 c 0.15618,-10.39063 0.0282,-19.93192 -0.28431,-21.20286 l -0.56829,-2.3108 -3.21569,0.3108 -3.21569,0.3108 -0.5,8.5 -0.5,8.5 -7.91317,0.295 -7.91317,0.295 -0.82152,-1.295 c -0.45183,-0.71225 -0.82841,-4.7825 -0.83683,-9.045 l -0.0153,-7.75 H 292.91559 273.9746 l -0.6451,1.0438 c -0.35481,0.5741 -0.12052,1.67591 0.52065,2.44847 l 1.16577,1.40466 4.67032,0.30153 4.67033,0.30154 0.27379,17.9262 0.27379,17.92621 1.13871,1.37205 c 0.62628,0.75463 2.07808,1.23784 3.2262,1.0738 l 2.08751,-0.29826 z"
       id="path530"
       sodipodi:nodetypes="ccsscccccsscccsssscccccsscccccsscccsscccccccccccccccssscssccccsscsscccccsssscccccccsssscccccccccccssccccccccsscccccccccccccsscccccccsscccsscccccsscc" />
    <path
       style="fill:#dcdcdc"
       d="m 267.35656,366.52245 -14.3,-1.2 -0.96498,-29.76498 -0.26499,-30.46499 -1.01154,-1.01154 c -0.55635,-0.55635 -4.9371,-1.2471 -9.73501,-1.53501 l -8.72348,-0.52348 v -1.17963 c 0,-0.64879 15.2507,-16.52654 33.89044,-35.28388 l 33.89044,-34.10425 8.23345,8.67084 8.23345,8.67084 1.12611,-0.69598 c 0.61936,-0.38279 1.12611,-2.01942 1.12611,-3.63696 v -2.94098 l 9.25,-0.18319 c 10.71714,-0.21223 13.80909,-0.091 14.46717,0.56702 0.2607,0.26071 0.43951,6.6935 0.39735,14.29509 -0.0422,7.6016 0.25232,15.27042 0.65441,17.04185 l 0.73107,3.22076 11.89502,12.08422 11.89501,12.08422 -0.90254,0.90254 c -0.49641,0.49641 -4.94916,1.03416 -9.89502,1.19502 l -8.99247,0.29247 -0.26405,31.75 -1.23595,30.75 -3.76405,1.0121 c -2.60477,0.007 -17.33595,0.11914 -32.73595,0.25 -15.4,0.13087 -34.75,0.0129 -43,-0.26206 z m 77.5,-35 0.5,-31.5 7.8189,-0.2933 7.8189,-0.29331 -0.35457,-1.0637 c -0.19501,-0.58504 -4.83852,-5.50416 -10.3189,-10.93139 l -9.96433,-9.86768 -0.5,-16.27531 -0.5,-16.27531 h -8.5 -8.5 l -0.30226,5.25 -0.30226,5.25 h -1.59802 c -0.87892,0 -5.80077,-4.3875 -10.93746,-9.75 l -9.33943,-9.75 -30.51029,30.82205 c -16.78065,16.95213 -30.51028,31.2207 -30.51028,31.70794 0,0.48723 3.4875,1.01731 7.75,1.17795 l 7.75,0.29206 0.25289,30.5 c 0.13908,16.775 0.46426,31.06719 0.72261,31.76042 l 0.46973,1.26042 44.27738,-0.26042 44.27739,-0.26042 z m -62.50522,28.79805 c -0.26363,-0.71393 -0.59531,-9.39805 -0.73706,-19.29805 l -0.25772,-18 -5.5,-0.5 -5.5,-0.5 v -5.5 -5.5 h 22.5 22.5 l 0.5,9 0.5,9 h 5 5 l 0.5,-9 1,-8.5 6,-0.5 6,0.5 0.5,24.5 -1.37537,23.62463 -5.12463,1.37537 -5.33333,-1.16667 -1.66667,-8.83333 -0.5,-10 h -5 -5 l -0.5,10 -0.5,10 h -6.5 -6.5 l -0.27184,-18.68955 -0.27185,-18.68954 -2.07882,-0.65979 c -1.14335,-0.36289 -2.47298,-0.26563 -2.95473,0.21612 -0.48175,0.48175 -0.99895,9.18895 -1.14934,19.34934 l -0.81755,17.97342 -5.71881,0.79805 -6.26295,0.29806 z m 9.35898,-3.12185 1.09866,-1.32379 0.27379,-17.92621 0.27379,-17.9262 h 5.5 5.5 l 0.5,19 0.5,19 h 3 3 l 0.5,-9.20457 0.5,-9.20456 1.0969,-1.09234 1.0969,-1.09233 7.4031,0.2969 7.4031,0.2969 0.5,9.39568 0.5,9.39568 1.75,1.0992 1.75,1.09921 1.75,-1.10299 1.75,-1.10299 0.27034,-20.65891 0.27034,-20.65892 -2.64198,-1.00447 -2.64197,-1.00448 -1.33938,1.11158 -1.33938,1.11159 -0.28898,8.15991 -0.28899,8.15991 -7.4031,0.2969 -7.4031,0.2969 -1.0969,-1.09274 c -0.6033,-0.60101 -1.3219,-4.78462 -1.5969,-9.2969 l -0.5,-8.20416 -18.10928,-0.27201 -18.10929,-0.27202 -1.25259,1.50928 c -0.68893,0.8301 -1.00071,2.16568 -0.69285,2.96795 l 0.55975,1.45866 5.30213,0.30407 5.30213,0.30407 0.27379,17.9262 0.27379,17.92621 1.09866,1.32379 c 0.60426,0.72809 1.88845,1.3238 2.85376,1.3238 0.96531,0 2.2495,-0.59571 2.85376,-1.3238 z"
       id="path528"
       sodipodi:nodetypes="ccccsscsscccsscsssscccssccccsscccccsscccccccsscssscssccccsscccccccccccccccccccccccccccccssscccsscccccccccccccccccccccccccccccccsscccsscccccsss" />
    <path
       style="fill:#d2d2d2"
       d="m 252.33182,365.28226 c -0.25822,-0.6929 -0.58329,-14.98481 -0.72237,-31.75981 l -0.25289,-30.5 -8.99247,-0.29247 c -4.94586,-0.16086 -9.4194,-0.7194 -9.94121,-1.24121 l -0.94873,-0.94873 32.29982,-32.32719 c 17.7649,-17.77996 32.72331,-33.08391 33.2409,-34.0088 1.66504,-2.97527 3.6359,-1.84903 11.98744,6.85012 4.50494,4.69245 8.53045,8.17995 8.94558,7.75 0.41513,-0.42994 0.9019,-2.13172 1.08172,-3.78172 l 0.32695,-3 h 11.5 11.5 l 0.5,16.61142 0.5,16.61142 6.92567,7.73442 c 3.80913,4.25393 9.0964,9.60379 11.74951,11.88858 2.65311,2.28479 4.82406,4.92477 4.82433,5.86663 l 4.9e-4,1.71248 -9.25,0.28752 -9.25,0.28753 -0.5,31.5 -0.5,31.5 -47.27762,0.25981 -47.27762,0.25981 z m 92.56054,-33.75981 c 0.29469,-17.325 0.63219,-31.6125 0.75,-31.75 0.11781,-0.1375 3.5892,-0.25 7.7142,-0.25 h 7.5 v -1.26787 c 0,-0.69732 -4.71405,-5.96587 -10.47566,-11.70788 l -10.47567,-10.44001 -0.27433,-15.54212 -0.27434,-15.54212 h -8.5 -8.5 l -0.5,4.92245 c -0.275,2.70735 -1.01188,5.09048 -1.63751,5.29584 -0.62563,0.20536 -5.10318,-3.92224 -9.95012,-9.17245 -4.84694,-5.25021 -9.53447,-9.54584 -10.41675,-9.54584 -1.86028,0 -62.22702,61.43527 -61.28871,62.37357 0.34453,0.34454 3.61142,0.62643 7.25976,0.62643 h 6.63333 l 1.2,1.2 1.2,1.2 v 30.13333 c 0,16.57334 0.30462,30.43796 0.67694,30.81028 0.37232,0.37232 20.50982,0.55982 44.75,0.41667 l 44.07306,-0.26028 z m -62.55946,28.75 c -0.25349,-0.6875 -0.57687,-9.35 -0.71862,-19.25 l -0.25772,-18 -5.5,-0.5 -5.5,-0.5 -0.30115,-5.21811 -0.30116,-5.21811 2.30116,-0.5651 c 1.26563,-0.31081 11.52615,-0.43766 22.80115,-0.28189 l 20.5,0.28321 0.5,9 0.5,9 h 5 5 l 0.29571,-7.95262 c 0.16264,-4.37393 0.7971,-8.55674 1.4099,-9.29513 l 1.11419,-1.34252 5.5901,0.29514 5.0901,0.79513 0.76839,23.37537 0.2684,23.87538 -1.14084,1.37462 -1.14084,1.37463 h -4.75511 -4.75511 l -1.08063,-1.30207 c -0.59434,-0.71614 -1.21194,-5.32864 -1.37244,-10.25 l -0.29182,-8.94793 h -5 -5 l -0.29182,8.94793 -0.29182,8.94792 -1.11808,1.34721 -1.11808,1.34721 -5.5901,-0.29514 -5.5901,-0.29513 -0.5,-19 -0.5,-19 h -2.5 -2.5 l -0.27379,17.9262 -0.27379,17.92621 -1.09866,1.32379 -1.09865,1.3238 h -5.40894 -5.40894 z m 10.52366,-21.25 0.5,-19 h 5.5 5.5 l 0.5,19 0.5,19 h 3.5 3.5 l 0.5,-10 0.5,-10 h 8 8 l 0.5,10 0.5,10 h 3.5 3.5 l 0.26944,-21.72607 0.26943,-21.72607 -2.5172,-0.63178 c -1.38446,-0.34747 -3.17538,-0.37921 -3.97982,-0.0705 l -1.46263,0.56126 -0.28961,8.79658 -0.28961,8.79658 h -8 -8 l -0.25433,-7 c -0.13989,-3.85 -0.48839,-8.02218 -0.77445,-9.27151 l -0.52012,-2.2715 -19.22555,0.2715 -19.22555,0.27151 v 2.5 2.5 l 5.5,0.5 5.5,0.5 0.25772,18 c 0.14175,9.9 0.47616,18.59124 0.74313,19.31387 l 0.4854,1.31387 3.25687,-0.31387 3.25688,-0.31387 z"
       id="path526"
       sodipodi:nodetypes="sscsscssssscccccssscccccccsssscsscccccsssssscccssscssscccccsscccccsscccccccccsscccccccccccccccccccsccccccccccccccccccsscccccsscccccccsscccc" />
    <path
       style="fill:#cfcfcf"
       d="m 252.33182,365.28226 c -0.25822,-0.6929 -0.58329,-14.98481 -0.72237,-31.75981 l -0.25289,-30.5 -9.25,-0.28753 -9.25,-0.28752 v -1.24117 c 0,-1.53532 42.92897,-45.08814 43.69109,-44.32602 0.9604,0.9604 -5.08717,7.67719 -22.12361,24.57178 -9.11211,9.03624 -16.56748,16.79874 -16.56748,17.25 0,0.45125 3.285,0.82046 7.3,0.82046 h 7.3 l 1.2,1.2 1.2,1.2 v 30.8 30.8 h 45 45 v -30.8 -30.8 l 1.2,-1.2 1.2,-1.2 h 7.3 c 4.015,0 7.3,-0.38985 7.3,-0.86632 0,-0.47648 -4.95,-5.77727 -11,-11.77953 l -11,-10.9132 v -15.75941 -15.75941 l -8.75,0.28894 -8.75,0.28893 -0.5,4.92245 c -0.275,2.70735 -1.0087,5.08942 -1.63043,5.29348 -0.62174,0.20407 -5.08008,-3.92354 -9.90741,-9.17245 -4.82733,-5.24891 -9.48473,-9.54348 -10.34978,-9.54348 -0.86505,0 -5.50513,3.91409 -10.31128,8.69798 -4.80616,4.78389 -9.0173,8.41915 -9.3581,8.07835 -0.95429,-0.95429 17.82242,-20.54885 19.807,-20.66974 0.9625,-0.0586 1.75,0.31122 1.75,0.82188 0,1.0732 15.08078,16.07153 16.15988,16.07153 0.39566,0 0.85905,-1.6875 1.02975,-3.75 l 0.31037,-3.75 h 11.5 11.5 l 0.5,17.18278 0.5,17.18278 9,9.27468 c 4.95,5.10107 10.25637,10.3622 11.79194,11.6914 1.53557,1.3292 2.62483,2.92334 2.42058,3.54254 l -0.37135,1.12582 -8.92059,0.5 -8.92058,0.5 -0.5,31.5 -0.5,31.5 -47.27762,0.25981 -47.27762,0.25981 z m 30.67098,-5.08361 -1.09866,-1.32379 -0.27379,-17.92621 -0.27379,-17.9262 -4.48038,-0.31875 c -2.46421,-0.17532 -5.05171,-0.79292 -5.75,-1.37245 -1.60916,-1.33548 -1.6576,-8.02082 -0.0696,-9.6088 l 1.2,-1.2 h 20.67756 20.67755 l 1.07673,1.29738 c 0.59221,0.71357 1.20981,4.87607 1.37245,9.25 l 0.29569,7.95262 5.25,0.30226 5.25,0.30226 v -8.35226 l 0.34042,-8.40089 0.85958,-1.15137 c 1.31628,-1.7631 10.04419,-1.55581 11.6,0 l 1.2,1.2 v 23.1 23.1 l -1.2,1.2 c -0.66,0.66 -3.3049,1.2 -5.87756,1.2 h -4.67755 l -1.08063,-1.30207 c -0.59434,-0.71614 -1.21194,-5.32864 -1.37244,-10.25 l -0.29182,-8.94793 h -5 -5 l -0.29182,8.94793 c -0.1605,4.92136 -0.7781,9.53386 -1.37244,10.25 l -1.08063,1.30207 h -4.75511 -4.75511 l -1.09865,-1.3238 -1.09866,-1.32379 -0.27379,-17.92621 -0.27379,-17.9262 h -2.5 -2.5 l -0.27379,17.9262 -0.27379,17.92621 -1.09866,1.32379 -1.09865,1.3238 h -4.75511 -4.75511 z m 9.62755,-20.1024 0.27379,-17.92621 1.09866,-1.32379 1.09865,-1.3238 h 3.75511 3.75511 l 1.09865,1.3238 1.09866,1.32379 0.27379,17.92621 0.27379,17.9262 h 3.5 3.5 l 0.29182,-8.94793 c 0.1605,-4.92136 0.7781,-9.53386 1.37244,-10.25 l 1.08063,-1.30207 h 6.25511 6.25511 l 1.08063,1.30207 c 0.59434,0.71614 1.21194,5.32864 1.37244,10.25 l 0.29182,8.94793 h 3.5 3.5 v -22 -22 h -3.5 -3.5 l -0.29571,7.95262 c -0.16264,4.37393 -0.78024,8.53643 -1.37245,9.25 l -1.07673,1.29738 -6.12755,-0.0153 c -3.37016,-0.008 -6.67027,-0.36025 -7.33359,-0.78185 l -1.20604,-0.76653 -0.29396,-8.46815 -0.29397,-8.46817 h -19.5 -19.5 v 2.5 2.5 l 4.48038,0.31875 c 2.46421,0.17532 5.05171,0.79292 5.75,1.37245 l 1.26962,1.05369 v 17.71089 c 0,9.74099 0.32133,18.03221 0.71406,18.42495 0.39273,0.39273 2.08023,0.58023 3.75,0.41666 l 3.03594,-0.29739 z"
       id="path524"
       sodipodi:nodetypes="sscccssssscccccccccccssscccccsssssssssscccccssscccccccsccccssscccsscccccsscccsscsscccssccccccccccccccccccccccccccccsscccsscccccccssccscccccccsscssscc" />
    <path
       style="fill:#cecece"
       d="m 252.64236,366.28224 c -0.11781,-0.14288 -0.45531,-14.43479 -0.75,-31.75979 l -0.5358,-31.5 -8.79659,-0.28961 -8.79658,-0.28961 -0.48416,-1.2617 -0.48416,-1.26169 21.0659,-20.9487 c 11.58625,-11.52178 21.27508,-21.13619 21.53075,-21.36536 0.25566,-0.22916 0.46484,0.0388 0.46484,0.59542 0,0.55665 -8.55,9.73664 -19,20.39997 -10.45,10.66333 -19,19.73289 -19,20.15458 0,0.42168 3.285,0.7667 7.3,0.7667 h 7.3 l 1.2,1.2 1.2,1.2 v 30.8 30.8 h 45 45 v -30.06574 -30.06574 l 1.03518,-1.93426 1.03519,-1.93426 h 7.46481 c 4.10565,0 7.46482,-0.38985 7.46482,-0.86632 0,-0.47648 -4.95,-5.77727 -11,-11.77953 l -11,-10.9132 v -15.72047 -15.72048 h -9 -9 v 4.94098 4.94099 l -1.19665,0.73957 -1.19665,0.73957 -9.05335,-9.69434 c -4.97934,-5.33189 -9.73961,-9.68814 -10.57838,-9.68056 -0.83876,0.008 -4.88876,3.42029 -9,7.58378 -4.11123,4.1635 -8.37497,8.05398 -9.47497,8.64551 l -2,1.07552 2,-2.2668 c 1.1,-1.24673 5.69052,-6.08229 10.20115,-10.74569 l 8.20115,-8.4789 8.69751,8.60019 c 4.78364,4.7301 9.05345,8.60018 9.48849,8.60018 0.43503,0 0.93063,-1.6875 1.10133,-3.75 l 0.31037,-3.75 h 11.5 11.5 l 0.5,17.14195 0.5,17.14194 9,9.35806 c 4.95,5.14693 10.25637,10.42643 11.79194,11.73223 1.53557,1.3058 2.61933,2.8808 2.40837,3.5 -0.40146,1.1783 -1.01625,1.25475 -11.93626,1.48425 l -6.73596,0.14157 -0.26404,31.75 -0.76408,31.25 -46.74997,0.75979 c -25.98446,0.4223 -47.34639,0.14289 -47.4642,0 z m 30.24938,-6.69405 -1.03518,-1.93426 v -17.56574 -17.56574 h -4.8 -4.8 l -1.2,-1.2 c -0.66,-0.66 -1.2,-2.89417 -1.2,-4.96482 v -3.76481 l 1.93426,-1.03519 1.93426,-1.03518 h 19.86574 19.86574 l 1.2,1.2 1.2,1.2 v 8.3 8.3 h 5.5 5.5 v -7.92857 l 0.75,-6.82137 0.82143,-2.67863 1.57143,-1.57143 h 4.22857 c 2.32571,0 4.76857,0.54 5.42857,1.2 l 1.2,1.2 v 22.72857 22.72857 l -1.57143,1.57143 -1.57143,1.57143 h -3.85714 -3.85714 l -1.57143,-1.57143 -1.57143,-1.57143 v -8.92857 -8.92857 h -5.5 -5.5 v 8.92857 8.92857 l -1.57143,1.57143 -1.57143,1.57143 h -4.22857 c -2.32571,0 -4.76857,-0.54 -5.42857,-1.2 l -1.2,-1.2 v -18.3 -18.3 h -3 -3 v 17.92857 17.92857 l -1.57143,1.57143 -1.57143,1.57143 h -4.39338 -4.39339 z m 9.73861,-19.49194 0.27379,-17.92621 1.09866,-1.32379 c 1.37115,-1.65214 8.0399,-1.73766 9.65376,-0.1238 l 1.2,1.2 v 18.36037 18.36036 l 3.75,-0.31036 3.75,-0.31037 0.29182,-8.94793 c 0.1605,-4.92136 0.7781,-9.53386 1.37244,-10.25 l 1.08063,-1.30207 h 6.25511 6.25511 l 1.08063,1.30207 c 0.59434,0.71614 1.21194,5.32864 1.37244,10.25 l 0.29182,8.94793 h 3.5 3.5 v -22 -22 h -3.5 -3.5 l -0.29571,7.95262 c -0.16264,4.37393 -0.78024,8.53643 -1.37245,9.25 l -1.07673,1.29738 h -6.25511 -6.25511 l -1.07673,-1.29738 c -0.59221,-0.71357 -1.20981,-4.87607 -1.37245,-9.25 l -0.29571,-7.95262 h -19.5 -19.5 l -0.31642,2.75 -0.31642,2.75 h 4.86642 4.86642 l 1.2,1.2 1.2,1.2 v 18.36037 18.36036 l 3.75,-0.31036 3.75,-0.31037 z"
       id="path522"
       sodipodi:nodetypes="sscccccsssssscccccccccccssscccccccccscsscsscssscccccsssscccssccccccsscccccccccccccccsscccccccccccccccccssccccccccccccccsscccccsscccsscccccccsscccsscccccccccccccc" />
    <path
       style="fill:#cbcbcb"
       d="m 253.00205,365.19776 -1.11567,-1.34431 -0.26491,-30.4155 -0.26491,-30.4155 -8.79659,-0.28961 -8.79658,-0.28961 -0.59913,-1.56132 -0.59913,-1.56131 1.34649,-0.83218 c 0.74056,-0.45769 10.53381,-9.97478 21.76276,-21.14907 11.22895,-11.1743 20.0261,-19.58316 19.54923,-18.68636 -0.47688,0.8968 -8.96477,10.00246 -18.86199,20.23481 -9.89721,10.23235 -18.14721,19.0611 -18.33333,19.61946 l -0.3384,1.01519 h 7.01191 7.0119 l 1.57143,1.57143 1.57143,1.57143 v 30.42857 30.42857 h 45 45 l 0.0765,-29.25 c 0.0421,-16.0875 0.23716,-30.10495 0.43352,-31.14989 0.54507,-2.90073 2.38011,-3.56812 9.8566,-3.5848 l 6.86663,-0.0153 -0.52301,-2 c -0.70427,-2.69313 0.45426,-2.51824 3.28605,0.49606 2.62926,2.79872 2.09939,3.97417 -1.83304,4.06641 -1.46479,0.0344 -5.46944,0.14686 -8.89921,0.25 l -6.23595,0.18752 -0.26404,31.75 -0.76408,31.25 -46.11939,0.7598 -46.61942,0.25981 z m 30.66894,-4.78805 -0.98828,-0.61274 0.12361,-16.95987 c 0.068,-9.32793 -0.16604,-17.7147 -0.52006,-18.63726 l -0.64368,-1.67739 h -4.32158 -4.32158 l -1.57143,-1.57143 c -1.67662,-1.67662 -2.06911,-6.09603 -0.72895,-8.20794 l 0.81185,-1.27936 21.26262,-0.0475 c 11.69444,-0.0261 21.55972,0.24967 21.92284,0.61291 0.36311,0.36323 0.66021,4.23887 0.66021,8.61252 v 7.95209 l 1.5,0.94905 c 0.825,0.52197 2.93036,0.95594 4.67857,0.96436 l 3.17857,0.0153 1.62076,-1.62075 1.62075,-1.62076 -0.19585,-7.39939 c -0.10771,-4.06967 0.0436,-7.63882 0.33621,-7.93145 0.90989,-0.90988 9.3533,-1.29765 10.66075,-0.4896 l 1.24057,0.76671 -0.0441,23.78825 c -0.0243,13.08354 -0.26584,24.00997 -0.53683,24.28095 -0.70924,0.70924 -10.51015,0.60859 -11.23411,-0.11536 -0.33444,-0.33444 -0.52324,-4.12741 -0.41957,-8.42883 0.10367,-4.30141 -0.10584,-8.58778 -0.46559,-9.52526 l -0.65411,-1.70451 h -5.32562 -5.32562 l -0.63506,2.00089 c -0.34928,1.10049 -0.51011,5.35599 -0.35739,9.45667 0.15271,4.10068 -0.0268,7.76028 -0.399,8.13244 -0.83295,0.83295 -10.58293,0.90374 -11.40387,0.0828 -0.32662,-0.32663 -0.51321,-8.16382 -0.41464,-17.41598 0.0986,-9.25215 -0.11733,-17.59491 -0.47979,-18.53946 l -0.65901,-1.71736 h -2.78602 -2.78602 l -0.64368,1.67739 c -0.35402,0.92256 -0.58823,9.28363 -0.52048,18.58016 0.0678,9.29652 -0.1098,17.13576 -0.39457,17.42053 -0.75622,0.75622 -9.68076,0.92842 -10.84082,0.20918 z m 9.18557,-20.18726 v -18.3 l 1.2,-1.2 c 1.71162,-1.71162 7.37339,-1.48375 9.22857,0.37143 l 1.57143,1.57143 v 17.98893 17.98894 l 3.75,-0.31036 3.75,-0.31037 0.29182,-8.94793 c 0.1605,-4.92136 0.7781,-9.53386 1.37244,-10.25 l 1.08063,-1.30207 h 6.17755 6.17756 l 1.2,1.2 1.2,1.2 v 9.3 9.3 h 4.01913 4.01913 l -0.26913,-22.25 -0.26913,-22.25 h -3.5 -3.5 l -0.2965,7.9965 c -0.16308,4.39808 -0.69428,8.39428 -1.18045,8.88045 -0.48617,0.48617 -3.77099,1.06731 -7.29959,1.29141 l -6.41565,0.40746 -1.10819,-1.3353 c -0.60951,-0.73441 -1.24127,-4.91397 -1.40391,-9.2879 l -0.29571,-7.95262 -19.75,-0.27114 -19.75,-0.27114 v 3.02114 3.02114 h 4.96482 4.96481 l 0.95882,1.79156 c 0.52734,0.98536 0.92228,2.44786 0.87764,3.25 -0.0446,0.80214 -0.0103,8.77094 0.0764,17.70844 l 0.15751,16.25 h 4 4 z m 56.39714,-55.02112 -9.39714,-9.32111 v -15.67889 -15.67888 h -9 -9 v 4.53138 4.53139 l -1.65881,0.63654 -1.65881,0.63655 -4.80518,-5.41793 c -7.14797,-8.05947 -12.97136,-13.91793 -13.83462,-13.91793 -0.42064,0 -4.6244,3.825 -9.34168,8.5 -4.71727,4.675 -8.90781,8.5 -9.3123,8.5 -0.40448,0 2.80473,-3.7125 7.13159,-8.25 4.32686,-4.5375 8.64637,-9.10397 9.5989,-10.14771 l 1.73189,-1.89771 8.53167,8.64771 c 4.69242,4.75624 8.97379,8.64771 9.51415,8.64771 0.54036,0 1.12213,-1.6875 1.29283,-3.75 l 0.31037,-3.75 h 11.5 11.5 l 0.5,17.17894 0.5,17.17893 8.25,8.44888 c 7.72499,7.91121 9.13086,9.69325 7.64714,9.69325 -0.33157,0 -4.83157,-4.1945 -10,-9.32112 z"
       id="path520"
       sodipodi:nodetypes="ccccccccssssscccccccccssscssssccccccscsscccsscssscsscccssscssssscccsssssscccssssccsscccccsscccccccccccccssscsscccccccsscccccscccccccccsssssscssscccccsss" />
    <path
       style="fill:#c3c3c3;fill-opacity:1"
       d="m 253.05656,365.32245 -1.2,-1.2 v -30.8 -30.8 h -8.94098 -8.94099 l -0.68029,-1.10073 -0.68029,-1.10074 6.34239,-6.39926 c 3.48831,-3.5196 6.78847,-6.39927 7.33368,-6.39927 0.54521,0 -1.19073,2.21534 -3.85766,4.92298 l -4.84895,4.92298 0.60516,1.57702 0.60516,1.57702 h 7.53139 7.53138 v 30.8 30.8 l 1.2,1.2 1.2,1.2 h 43.6 43.6 l 1.2,-1.2 1.2,-1.2 v -30.8 -30.8 h 8 8 v -2 c 0,-1.1 0.38026,-2 0.84501,-2 0.96803,0 4.15499,3.32023 4.15499,4.32874 0,0.36919 -4.02344,0.67126 -8.94098,0.67126 h -8.94099 l -0.66871,1.082 c -0.36779,0.5951 -0.59596,14.58331 -0.50704,31.08491 l 0.16168,30.00291 -1.17443,1.41509 -1.17442,1.41509 h -45.67755 -45.67756 z m 29.8,-23.1 v -18.3 l -1.2,-1.2 -1.2,-1.2 h -4.8 -4.8 v -5 -5 h 22 22 v 8.3 8.3 l 1.2,1.2 c 1.55432,1.55432 9.04568,1.55432 10.6,0 l 1.2,-1.2 v -8.3 -8.3 h 6 6 v 24.5 l -0.87537,23.62463 -5.12463,0.87537 -5.54112,-1.06653 -0.45888,-8.23347 v -9.3 l -1.2,-1.2 c -1.55432,-1.55432 -9.04568,-1.55432 -10.6,0 l -1.2,1.2 v 9.3 9.3 h -5.97793 -5.97794 l -0.27206,-18.64206 -0.27207,-18.64206 -1.75,-1.10282 -1.75,-1.10283 -1.75,1.10283 -1.75,1.10282 -0.27207,18.64206 -0.27206,18.64206 h -5.97794 -5.97793 z m 9.8,16.1 1.2,-1.2 v -18.3 -18.3 h 5 5 v 18.3 18.3 l 1.2,1.2 c 0.66,0.66 2.44417,1.2 3.96482,1.2 h 2.76481 l 1.11959,-2.09196 1.11958,-2.09196 -0.19147,-7.15804 c -0.10531,-3.93692 -0.14329,-7.72054 -0.0844,-8.40804 l 0.10707,-1.25 h 7.5 7.5 v 9.3 9.3 l 1.2,1.2 c 0.66,0.66 2.37,1.2 3.8,1.2 1.43,0 3.14,-0.54 3.8,-1.2 l 1.2,-1.2 v -20.72857 -20.72857 l -1.57143,-1.57143 c -1.86505,-1.86505 -5.54582,-2.05418 -7.22857,-0.37143 l -1.2,1.2 v 8.34206 8.34207 l -7.75,-0.29207 -7.75,-0.29206 0.35374,-6.7672 0.35374,-6.7672 -1.64116,-2.50473 -1.64116,-2.50473 -18.60464,0.27193 -18.60464,0.27193 -1.10282,1.75 -1.10283,1.75 1.09788,1.75 1.09788,1.75 5.147,0.30226 5.14701,0.30226 v 18.24774 18.24774 l 1.2,1.2 c 0.66,0.66 2.37,1.2 3.8,1.2 1.43,0 3.14,-0.54 3.8,-1.2 z m 56.92915,-73.56978 -8.72915,-8.76979 v -15.03021 -15.03022 l -1.2,-1.2 -1.2,-1.2 h -7.76482 -7.76481 l -1.13575,2.12217 -1.13575,2.12217 0.58318,2.91589 0.58317,2.91588 -1.37948,0.52936 -1.37948,0.52936 -4.85313,-5.16704 c -5.91905,-6.3019 -7.09576,-8.89671 -1.68597,-3.71779 2.15444,2.0625 4.46069,3.75 5.125,3.75 h 1.20784 v -2.8 c 0,-1.54 0.54,-3.34 1.2,-4 l 1.2,-1.2 h 9.6 9.6 l 1.2,1.2 1.2,1.2 v 15.95337 15.95337 l 8.08549,8.84663 c 4.44702,4.86565 7.92514,8.84663 7.72915,8.84663 -0.19599,0 -4.28446,-3.9464 -9.08549,-8.76978 z m -88.76327,-12.69602 c 6.83972,-6.85618 12.66072,-12.24093 12.93555,-11.9661 0.65378,0.65378 -23.06487,24.4319 -24.37079,24.4319 -0.55035,0 4.59551,-5.60961 11.43524,-12.4658 z m 22.03412,-21.91176 c 0,-0.20765 0.7875,-0.99515 1.75,-1.75 l 1.75,-1.37244 -1.37244,1.75 c -1.30637,1.66575 -2.12756,2.19548 -2.12756,1.37244 z m 7.5,-7.62244 c 0.99549,-1.1 2.03498,-2 2.30998,-2 0.275,0 -0.31449,0.9 -1.30998,2 -0.99549,1.1 -2.03498,2 -2.30998,2 -0.275,0 0.31449,-0.9 1.30998,-2 z m 6.40967,-6.87314 c 1.22459,-1.71977 2.61523,-3.12686 3.09033,-3.12686 0.4751,0 1.86574,1.40709 3.09033,3.12686 l 2.22652,3.12685 -2.65843,-1.74186 -2.65842,-1.74187 -2.65842,1.74187 -2.65843,1.74186 z"
       id="path518"
       sodipodi:nodetypes="ccccccccssscccccccccccccccccsssscssccccccccccccccccccsscccccccccccssccccccccccccccccscccccccsscccsscccccssscccsscccccccccccccccccccsssscccccccccccccssscsscccccccssssssssscsssssssssscccccs" />
    <path
       style="fill:#c0c0c0"
       d="m 252.85656,334.55763 v -30.96481 l -2.16071,-1.15638 -2.16071,-1.15638 -7.3718,0.4731 c -4.0545,0.2602 -7.60949,0.0885 -7.9,-0.38154 -0.49046,-0.79358 11.19112,-12.84917 12.45054,-12.84917 0.31212,0 -1.6459,2.24719 -4.35116,4.99375 l -4.91866,4.99375 0.95742,0.95742 c 0.52658,0.52658 4.33189,1.09189 8.45625,1.25625 l 7.49883,0.29883 0.26491,30.4155 0.26491,30.4155 1.10753,1.3345 1.10754,1.3345 h 43.75511 43.75511 l 1.10754,-1.3345 1.10753,-1.3345 0.26491,-30.4155 0.26491,-30.4155 7,-0.0907 7,-0.0907 -5.46969,0.40056 c -3.00832,0.2203 -6.04582,0.8787 -6.75,1.46311 l -1.28031,1.06262 v 30.87755 30.87756 h -47 -47 z m 30.45888,24.89829 c -0.36253,-0.58659 -0.41903,-1.30665 -0.12555,-1.60014 0.71632,-0.71631 2.66667,0.54583 2.66667,1.72569 0,1.27797 -1.72641,1.19267 -2.54112,-0.12555 z m 9.04667,-0.9396 c 1.98964,-2.19852 3.08052,-1.96353 2.14937,0.463 -0.32568,0.84872 -1.35102,1.54313 -2.27852,1.54313 h -1.68638 z m 11.16112,1.33946 c -0.36667,-0.36666 -0.66667,-1.32176 -0.66667,-2.12244 v -1.45578 l 1.5,1.24489 c 0.825,0.68469 1.5,1.63979 1.5,2.12244 0,1.03552 -1.38365,1.16058 -2.33333,0.21089 z m 8.58333,-1.04585 1.75,-1.94496 v -9.17126 -9.17126 h 2.15499 2.15499 l -1.61288,1.78221 -1.61288,1.78221 -0.29211,8.95654 -0.29211,8.95653 -2,0.37748 -2,0.37748 z m 16.41667,1.04585 c -0.36667,-0.36666 -0.66667,-1.32176 -0.66667,-2.12244 v -1.45578 l 1.5,1.24489 c 0.825,0.68469 1.5,1.63979 1.5,2.12244 0,1.03552 -1.38365,1.16058 -2.33333,0.21089 z m 8.33333,-0.12755 c 0,-0.52849 0.7269,-1.56417 1.61534,-2.3015 l 1.61534,-1.34062 -0.36534,1.88531 c -0.37664,1.94362 -2.86534,3.4695 -2.86534,1.75681 z m -10.49445,-19.19965 -1.81553,-2.00613 h 1.68638 c 0.9275,0 1.95284,0.69441 2.27852,1.54313 0.93115,2.42653 -0.15973,2.66152 -2.14937,0.463 z m -12.50555,-17.44943 v -8.44329 l -2.25,-1.62533 -2.25,-1.62533 2.5,0.31863 2.5,0.31862 0.29606,7.97216 0.29607,7.97216 1.60892,1.77784 1.60893,1.77784 h -2.15499 -2.15499 z m 12,7.64908 c 0,-0.52849 0.7269,-1.56417 1.61534,-2.3015 l 1.61534,-1.34062 -0.36534,1.88531 c -0.37664,1.94362 -2.86534,3.4695 -2.86534,1.75681 z m -32,-7.58218 c 0,-0.9275 0.69441,-1.95284 1.54313,-2.27852 2.42653,-0.93115 2.66152,0.15973 0.463,2.14937 l -2.00613,1.81553 z m 7.50555,-0.61747 -1.81553,-2.00613 h 1.68638 c 0.9275,0 1.95284,0.69441 2.27852,1.54313 0.93115,2.42653 -0.15973,2.66152 -2.14937,0.463 z m -20.60127,-0.62147 -1.34062,-1.61534 1.88531,0.36534 c 1.03691,0.20094 2.07259,0.92784 2.3015,1.61534 0.59396,1.78389 -1.25999,1.54592 -2.84619,-0.36534 z m -9.5592,-1.92779 c -0.93115,-2.42653 0.15973,-2.66152 2.14937,-0.463 l 1.81553,2.00613 h -1.68638 c -0.9275,0 -1.95284,-0.69441 -2.27852,-1.54313 z m -0.34508,-5.83327 c 0,-0.9275 0.69441,-1.95284 1.54313,-2.27852 2.42653,-0.93115 2.66152,0.15973 0.463,2.14937 l -2.00613,1.81553 z m 57,0 c 0,-0.9275 0.69441,-1.95284 1.54313,-2.27852 2.42653,-0.93115 2.66152,0.15973 0.463,2.14937 l -2.00613,1.81553 z m 10.06988,-0.0394 c -0.66832,-0.80527 -2.19494,-1.65486 -3.3925,-1.88798 l -2.17738,-0.42386 3.28138,-0.13618 3.28139,-0.13618 0.59215,1.54313 c 0.82979,2.16239 -0.1308,2.79332 -1.58504,1.04107 z m 23.94543,-13.3342 c 0.008,-0.4125 0.42413,-1.39606 0.92379,-2.1857 l 0.90847,-1.4357 1.57621,1.30815 c 2.28734,1.89831 1.93603,3.06325 -0.92378,3.06325 -1.375,0 -2.49311,-0.3375 -2.48469,-0.75 z M 250.85656,282.763 c 0,-0.4177 1.0125,-1.38145 2.25,-2.14166 l 2.25,-1.3822 -1.90499,2.14166 c -2.03808,2.29128 -2.59501,2.58792 -2.59501,1.3822 z m 93.70295,-3.03271 -3.70295,-3.79217 v -15.00783 -15.00784 l -1.2,-1.2 -1.2,-1.2 h -7.6 -7.6 l -1.2,1.2 c -0.66,0.66 -1.2,3.135 -1.2,5.5 0,2.365 -0.35287,4.3 -0.78416,4.3 -0.43129,0 -3.22842,-2.475 -6.21584,-5.5 -6.00812,-6.08369 -5.82415,-7.68713 0.20635,-1.79851 l 3.79067,3.70149 0.93019,-0.95149 c 0.51161,-0.52332 1.07478,-2.45277 1.25149,-4.28766 l 0.3213,-3.33617 10.33667,0.006 c 5.68516,0.003 10.56671,0.23622 10.84788,0.51739 0.28117,0.28117 0.44702,7.28409 0.36855,15.56205 l -0.14267,15.05084 1.16697,2.26795 c 0.64184,1.24737 2.32118,3.50544 3.73188,5.01794 3.88094,4.16101 2.12707,3.29324 -2.10633,-1.04216 z m -78.68289,-12.73201 c 0.69572,-0.83829 1.47088,-1.31823 1.72258,-1.06653 0.69349,0.6935 -0.71555,2.5907 -1.9241,2.5907 h -1.06343 z m 3.47994,-3.47583 c 0.33992,-0.55 0.81648,-1 1.05902,-1 0.24254,0 0.44098,0.45 0.44098,1 0,0.55 -0.47656,1 -1.05902,1 -0.58246,0 -0.7809,-0.45 -0.44098,-1 z m 30.69237,-27.71329 c -1.2692,-0.2425 -2.14107,-0.9406 -1.9375,-1.55131 0.66755,-2.00267 2.58816,-1.89722 3.71261,0.20383 0.60659,1.13343 0.97455,1.99949 0.8177,1.92459 -0.15685,-0.0749 -1.32361,-0.3346 -2.59281,-0.57711 z"
       id="path516" />
    <path
       style="fill:#bebebe"
       d="m 252.85656,334.64489 v -30.87755 l -1.41754,-1.17645 -1.41754,-1.17646 -8.10772,0.19541 c -4.45925,0.10748 -8.40707,-0.10393 -8.77294,-0.4698 -0.36587,-0.36586 0.0911,-1.42152 1.01548,-2.3459 l 1.6807,-1.6807 1.25978,1.67302 1.25978,1.67302 7.5,0.28148 7.5,0.28149 0.26491,30.4155 0.26491,30.4155 1.10753,1.3345 1.10754,1.3345 h 43.75511 43.75511 l 1.10659,-1.33336 1.10659,-1.33335 0.28206,-28.41665 0.28207,-28.41664 0.23379,30.25 0.23379,30.25 h -47 -47 z m 30.66667,25.21089 c -0.9557,-0.95569 -0.82206,-2.33333 0.22634,-2.33333 0.49116,0 1.15203,0.675 1.46862,1.5 0.58492,1.52428 -0.4803,2.04799 -1.69496,0.83333 z m 8.52083,-0.39583 c 0.24063,-0.72188 1.02812,-1.50937 1.75,-1.75 l 1.3125,-0.4375 -0.4375,1.3125 c -0.24063,0.72187 -1.02813,1.50937 -1.75,1.75 l -1.3125,0.4375 z m 11.27138,-0.004 c -1.07627,-1.74144 0.14952,-2.11024 1.52106,-0.45764 l 1.26495,1.52417 h -1.06343 c -0.58488,0 -1.36004,-0.47994 -1.72258,-1.06653 z m 8.54112,0.27228 c 0,-0.52849 0.7269,-1.56417 1.61534,-2.3015 l 1.61534,-1.34062 -0.36534,1.88531 c -0.37664,1.94362 -2.86534,3.4695 -2.86534,1.75681 z m 16.45888,-0.27231 c -0.36253,-0.58659 -0.41903,-1.30665 -0.12555,-1.60014 0.71632,-0.71631 2.66667,0.54583 2.66667,1.72569 0,1.27797 -1.72641,1.19267 -2.54112,-0.12555 z m 8.72862,0.004 c 0.24063,-0.72188 1.02812,-1.50937 1.75,-1.75 l 1.3125,-0.4375 -0.4375,1.3125 c -0.24063,0.72187 -1.02813,1.50937 -1.75,1.75 l -1.3125,0.4375 z m -23.1557,-18.12848 c -0.0175,-0.93004 0.44814,-1.9876 1.03473,-2.35014 1.76258,-1.08933 2.0097,0.059 0.45494,2.11412 l -1.45786,1.927 -0.0318,-1.69098 z m 12.98826,-1.28485 -1.26495,-1.52417 h 1.06343 c 1.20855,0 2.61759,1.8972 1.9241,2.5907 -0.2517,0.2517 -1.02686,-0.22824 -1.72258,-1.06653 z m -13.02006,-10.52414 c 0,-1.1 0.20917,-2 0.46482,-2 0.25565,0 0.94648,0.9 1.53518,2 l 1.07037,2 h -1.53519 -1.53518 z m 13.02006,0.47583 c 0.69572,-0.83829 1.47088,-1.31823 1.72258,-1.06653 0.69349,0.6935 -0.71555,2.5907 -1.9241,2.5907 h -1.06343 z m -45.02006,-7.47583 c -0.79314,-0.49019 -1.11011,-1.22322 -0.70437,-1.62896 0.40574,-0.40574 1.2627,-0.21271 1.90437,0.42896 1.51091,1.51091 0.66759,2.35423 -1.2,1.2 z m 12.1875,-0.0625 c 0.24063,-0.72188 1.02812,-1.50937 1.75,-1.75 l 1.3125,-0.4375 -0.4375,1.3125 c -0.24063,0.72187 -1.02813,1.50937 -1.75,1.75 l -1.3125,0.4375 z m 7.27138,-0.004 c -0.36253,-0.58659 -0.41903,-1.30665 -0.12555,-1.60014 0.71632,-0.71631 2.66667,0.54583 2.66667,1.72569 0,1.27797 -1.72641,1.19267 -2.54112,-0.12555 z m -30,-2 c -0.36253,-0.58659 -0.41903,-1.30665 -0.12555,-1.60014 0.71632,-0.71631 2.66667,0.54583 2.66667,1.72569 0,1.27797 -1.72641,1.19267 -2.54112,-0.12555 z m 42.65712,-3.85473 c -0.0638,-0.78169 -0.86074,-2.24419 -1.77099,-3.25 l -1.65499,-1.82877 h 1.68638 c 1.95689,0 2.9962,2.09796 2.32417,4.69159 l -0.46857,1.80841 -0.116,-1.42126 z m 23.38955,-3.07261 -1.81553,-2.00613 h 1.68638 c 0.9275,0 1.95284,0.69441 2.27852,1.54313 0.93115,2.42653 -0.15973,2.66152 -2.14937,0.463 z m -66.31805,-0.0686 c 0.24063,-0.72188 1.02812,-1.50937 1.75,-1.75 l 1.3125,-0.4375 -0.4375,1.3125 c -0.24063,0.72187 -1.02813,1.50937 -1.75,1.75 l -1.3125,0.4375 z m 57,0 c 0.24063,-0.72188 1.02812,-1.50937 1.75,-1.75 l 1.3125,-0.4375 -0.4375,1.3125 c -0.24063,0.72187 -1.02813,1.50937 -1.75,1.75 l -1.3125,0.4375 z m 18.04144,-11.12432 c 0.49828,-1.49484 2.77106,-2.31789 2.77106,-1.0035 0,0.53699 -0.7126,1.24979 -1.58356,1.58401 l -1.58356,0.60767 z m 6.52106,-1.51891 c 1.2375,-0.23836 3.2625,-0.23836 4.5,0 1.2375,0.23835 0.225,0.43337 -2.25,0.43337 -2.475,0 -3.4875,-0.19502 -2.25,-0.43337 z m 9.64301,-0.87606 c 0.33385,-0.87004 0.60699,-1.78587 0.60699,-2.03524 0,-0.24937 0.9,0.0283 2,0.61697 2.79638,1.49657 2.49219,3 -0.60699,3 h -2.60699 l 0.60699,-1.58179 z m -19.73802,-22.24701 -1.65499,-1.82874 v -14.97126 -14.97126 l -1.2,-1.2 -1.2,-1.2 h -7.6 -7.6 l -1.2,1.2 c -0.66,0.66 -1.2,3.135 -1.2,5.5 0,2.365 -0.35442,4.3 -0.78759,4.3 -1.09657,0 -10.21241,-9.36121 -10.21241,-10.4873 0,-0.50523 1.75938,0.79939 3.90973,2.89916 l 3.90974,3.81775 1.09026,-0.67382 c 0.59965,-0.3706 1.09027,-2.22227 1.09027,-4.11481 v -3.44098 h 11 11 l 0.006,15.75 0.006,15.75 1.43454,2.75 c 1.67823,3.21716 1.48711,3.43951 -0.79187,0.92126 z m -44.40499,-43.42126 c 0.22917,-0.6875 1.01667,-1.25 1.75,-1.25 0.73333,0 1.52083,0.5625 1.75,1.25 l 0.41667,1.25 h -2.16667 -2.16667 z"
       id="path514" />
    <path
       style="fill:#bbbbbb"
       d="m 252.85656,363.33132 v -2.19113 l 1.25,1.68768 1.25,1.68767 42.5,0.2646 42.5,0.2646 -43.75,0.23886 -43.75,0.23885 z m 90.86803,1.29385 c 0.75242,-0.47666 1.75803,-1.48227 2.23469,-2.23469 l 0.86665,-1.36803 0.0153,2.25 0.0153,2.25 -2.25,-0.0153 -2.25,-0.0153 1.36803,-0.86665 z m -60.36803,-5.10272 c -0.33992,-0.55 -0.14148,-1 0.44098,-1 0.58246,0 1.05902,0.45 1.05902,1 0,0.55 -0.19844,1 -0.44098,1 -0.24254,0 -0.7191,-0.45 -1.05902,-1 z m 9.52006,-0.52417 c 0.69572,-0.83829 1.47088,-1.31823 1.72258,-1.06653 0.69349,0.6935 -0.71555,2.5907 -1.9241,2.5907 h -1.06343 z m 10.64661,0.8575 c -0.36667,-0.36666 -0.66667,-1.13166 -0.66667,-1.7 v -1.03333 l 1.18333,1.18333 c 0.65084,0.65084 0.95084,1.41584 0.66667,1.7 -0.28417,0.28417 -0.81667,0.21667 -1.18333,-0.15 z m 8.93964,-0.74977 c 0.33422,-0.87096 1.04702,-1.58356 1.58401,-1.58356 1.31439,0 0.49134,2.27278 -1.0035,2.77106 l -1.18818,0.39606 z m 16.06036,0.74977 c -0.36667,-0.36666 -0.66667,-1.13166 -0.66667,-1.7 v -1.03333 l 1.18333,1.18333 c 0.65084,0.65084 0.95084,1.41584 0.66667,1.7 -0.28417,0.28417 -0.81667,0.21667 -1.18333,-0.15 z m 9.35339,-0.8575 c 0.69572,-0.83829 1.47088,-1.31823 1.72258,-1.06653 0.69349,0.6935 -0.71555,2.5907 -1.9241,2.5907 h -1.06343 z m -24.02006,-18.29437 c 0,-1.20855 1.8972,-2.61759 2.5907,-1.9241 0.2517,0.2517 -0.22824,1.02686 -1.06653,1.72258 l -1.52417,1.26495 z m 13.02006,-0.65729 -1.26495,-1.52417 h 1.06343 c 1.20855,0 2.61759,1.8972 1.9241,2.5907 -0.2517,0.2517 -1.02686,-0.22824 -1.72258,-1.06653 z m -12.56118,-9.5907 c -1.07627,-1.74144 0.14952,-2.11024 1.52106,-0.45764 l 1.26495,1.52417 h -1.06343 c -0.58488,0 -1.36004,-0.47994 -1.72258,-1.06653 z m 12.56118,-0.45764 c 0.69572,-0.83829 1.47088,-1.31823 1.72258,-1.06653 0.69349,0.6935 -0.71555,2.5907 -1.9241,2.5907 h -1.06343 z m -45,-7.95166 -1.26495,-1.52417 h 1.06343 c 1.20855,0 2.61759,1.8972 1.9241,2.5907 -0.2517,0.2517 -1.02686,-0.22824 -1.72258,-1.06653 z m 11.97994,0.65729 c 0,-1.20855 1.8972,-2.61759 2.5907,-1.9241 0.2517,0.2517 -0.22824,1.02686 -1.06653,1.72258 l -1.52417,1.26495 z m 8.02006,-0.65729 -1.26495,-1.52417 h 1.06343 c 1.20855,0 2.61759,1.8972 1.9241,2.5907 -0.2517,0.2517 -1.02686,-0.22824 -1.72258,-1.06653 z m -30.56118,-1.5907 c -1.07627,-1.74144 0.14952,-2.11024 1.52106,-0.45764 l 1.26495,1.52417 h -1.06343 c -0.58488,0 -1.36004,-0.47994 -1.72258,-1.06653 z m -0.45888,-6.75201 c 0,-1.20855 1.8972,-2.61759 2.5907,-1.9241 0.2517,0.2517 -0.22824,1.02686 -1.06653,1.72258 l -1.52417,1.26495 z m 41.45888,-0.24799 c -0.36253,-0.58659 -0.41903,-1.30665 -0.12555,-1.60014 0.71632,-0.71631 2.66667,0.54583 2.66667,1.72569 0,1.27797 -1.72641,1.19267 -2.54112,-0.12555 z m 15.54112,0.24799 c 0,-1.20855 1.8972,-2.61759 2.5907,-1.9241 0.2517,0.2517 -0.22824,1.02686 -1.06653,1.72258 l -1.52417,1.26495 z m 9.45888,-0.24799 c -0.36253,-0.58659 -0.41903,-1.30665 -0.12555,-1.60014 0.71632,-0.71631 2.66667,0.54583 2.66667,1.72569 0,1.27797 -1.72641,1.19267 -2.54112,-0.12555 z m -85.39426,-10.35561 c -0.67122,-0.80876 -3.09784,-1.64102 -5.3925,-1.84946 l -4.17212,-0.37899 5.28138,-0.1747 5.28139,-0.17471 0.59215,1.54313 c 0.8311,2.16579 -0.1317,2.79223 -1.5903,1.03473 z m 94.43538,-1.57786 c 0.33992,-0.55 1.06803,-1 1.61803,-1 0.55,0 0.72189,0.45 0.38197,1 -0.33992,0.55 -1.06803,1 -1.61803,1 -0.55,0 -0.72189,-0.45 -0.38197,-1 z m -113.5,-0.87756 c 0,-0.48265 0.68907,-1.44942 1.53126,-2.14838 l 1.53125,-1.27083 1.21875,1.56403 c 0.67031,0.86021 2.11874,1.77478 3.21874,2.03238 1.1,0.2576 -0.1375,0.52056 -2.75,0.58436 -2.6125,0.0638 -4.75,-0.2789 -4.75,-0.76156 z m 130,-1.09106 v -1.96861 l 1.5,0.5756 c 0.825,0.31659 1.5,1.20246 1.5,1.96862 0,0.76615 -0.675,1.39301 -1.5,1.39301 h -1.5 z m -21.52149,-24.28138 c -0.25229,-0.6875 -0.57567,-7.99609 -0.71861,-16.24131 l -0.2599,-14.99132 -3,-0.64037 -3,-0.64037 3.70441,-0.11832 3.7044,-0.11831 0.2956,17.00128 c 0.16257,9.35071 0.16897,17.00071 0.0142,17 -0.15477,-7e-4 -0.48781,-0.56378 -0.74011,-1.25128 z M 317.8365,252.99828 c -0.69572,-0.83829 -1.08832,-1.64062 -0.87244,-1.78296 0.21587,-0.14234 1.18,-0.86157 2.1425,-1.59828 l 1.75,-1.33948 v 3.12245 c 0,3.41087 -1.05317,3.96823 -3.02006,1.59827 z m 2.02006,-8.47583 v -2 h 2.15499 2.15499 l -1.80998,2 c -0.99549,1.1 -1.96523,2 -2.15499,2 -0.18975,0 -0.34501,-0.9 -0.34501,-2 z m -21.2,-10.2 1.2,-1.2 1.2,1.2 1.2,1.2 h -2.4 -2.4 z"
       id="path512" />
    <path
       style="fill:#a9a9a9"
       d="m 253.35656,364.52245 c -0.33992,-0.55 -0.14148,-1 0.44098,-1 0.58246,0 1.05902,0.45 1.05902,1 0,0.55 -0.19844,1 -0.44098,1 -0.24254,0 -0.7191,-0.45 -1.05902,-1 z m 91.5,0 c 0,-0.55 0.47656,-1 1.05902,-1 0.58246,0 0.7809,0.45 0.44098,1 -0.33992,0.55 -0.81648,1 -1.05902,1 -0.24254,0 -0.44098,-0.45 -0.44098,-1 z m -110.77083,-64.1875 c 0.61807,-1.85422 2.77083,-2.16176 2.77083,-0.39583 0,0.87083 -0.7125,1.58333 -1.58333,1.58333 -0.87084,0 -1.40521,-0.53438 -1.1875,-1.1875 z m 129.31354,0.2566 c -0.68308,-1.10523 0.8944,-2.29865 1.81781,-1.37525 0.95079,0.95079 0.77359,2.30615 -0.3015,2.30615 -0.51754,0 -1.19988,-0.41891 -1.51631,-0.9309 z m -45.35104,-48.1441 c 0.19708,-0.59125 0.78583,-1.075 1.30833,-1.075 0.5225,0 1.11125,0.48375 1.30833,1.075 0.19709,0.59125 -0.39166,1.075 -1.30833,1.075 -0.91667,0 -1.50542,-0.48375 -1.30833,-1.075 z m 2.30833,-8.925 c 0.33992,-0.55 0.81648,-1 1.05902,-1 0.24254,0 0.44098,0.45 0.44098,1 0,0.55 -0.47656,1 -1.05902,1 -0.58246,0 -0.7809,-0.45 -0.44098,-1 z m 19.5,-0.059 c 0,-0.58246 0.45,-0.7809 1,-0.44098 0.55,0.33992 1,0.81648 1,1.05902 0,0.24254 -0.45,0.44098 -1,0.44098 -0.55,0 -1,-0.47656 -1,-1.05902 z"
       id="path510" />
  </g>
</svg>
