<?xml version="1.0" encoding="UTF-8" standalone="no"?>
<svg
   version="1.1"
   id="svg10"
   width="400"
   height="400"
   viewBox="0 0 400 400"
   sodipodi:docname="stamp_transparent_op.svg"
   inkscape:version="1.1 (c68e22c387, 2021-05-23)"
   xmlns:inkscape="http://www.inkscape.org/namespaces/inkscape"
   xmlns:sodipodi="http://sodipodi.sourceforge.net/DTD/sodipodi-0.dtd"
   xmlns="http://www.w3.org/2000/svg"
   xmlns:svg="http://www.w3.org/2000/svg"
   xmlns:rdf="http://www.w3.org/1999/02/22-rdf-syntax-ns#"
   xmlns:cc="http://creativecommons.org/ns#"
   xmlns:dc="http://purl.org/dc/elements/1.1/">
  <title
     id="title757">Toyhouse Thumbnail Stamp</title>
  <metadata
     id="metadata16">
    <rdf:RDF>
      <cc:Work
         rdf:about="">
        <dc:format>image/svg+xml</dc:format>
        <dc:type
           rdf:resource="http://purl.org/dc/dcmitype/StillImage" />
        <dc:title>Toyhouse Thumbnail Stamp</dc:title>
      </cc:Work>
    </rdf:RDF>
  </metadata>
  <defs
     id="defs14" />
  <sodipodi:namedview
     pagecolor="#ffffff"
     bordercolor="#666666"
     borderopacity="1"
     objecttolerance="10"
     gridtolerance="10"
     guidetolerance="10"
     inkscape:pageopacity="0"
     inkscape:pageshadow="2"
     inkscape:window-width="2560"
     inkscape:window-height="1417"
     id="namedview12"
     showgrid="false"
     inkscape:zoom="1.8175"
     inkscape:cx="18.982118"
     inkscape:cy="143.87895"
     inkscape:window-x="2552"
     inkscape:window-y="-8"
     inkscape:window-maximized="1"
     inkscape:current-layer="layer1"
     inkscape:document-rotation="0"
     showguides="false"
     inkscape:pagecheckerboard="0" />
  <g
     inkscape:groupmode="layer"
     id="layer1"
     inkscape:label="Bottom" />
  <g
     inkscape:groupmode="layer"
     id="layer3"
     inkscape:label="Top"
     style="opacity:0.66025641">
    <path
       style="opacity:0.91987179;fill:none;fill-opacity:1;stroke:none;stroke-width:1px;stroke-linecap:butt;stroke-linejoin:miter;stroke-opacity:0"
       d="m 234.08573,300.83495 65.77083,-67.2125 20.14086,19.76305 0.35914,-9.36305 20,0.51737 0.97851,31.23263 22.0642,25.3191 -17.04271,0.4309 -1.5,62.5 -91.5,1 v -63.5 z"
       id="path911" />
    <path
       style="fill:#f0f0f0;fill-opacity:1;stroke:none;stroke-width:1px;stroke-linecap:butt;stroke-linejoin:miter;stroke-opacity:1"
       d="m 237.41403,311.69189 62.86108,-66.85007 18.01925,18.84456 2.75104,-8.94085 20.49518,-0.41265 1.92572,32.73727 22.14581,22.42091 -0.27511,2.20083 -17.19394,1.65062 0.2751,63.96148 -96.28611,0.2751 -0.96286,-62.99862 z"
       id="path1041" />
    <path
       id="path524"
       style="opacity:0.919872;fill:#3f3f3f;fill-opacity:1;fill-rule:nonzero;stroke:none;stroke-width:2.26772;stroke-linecap:butt;stroke-linejoin:bevel;stroke-miterlimit:4;stroke-dasharray:none;stroke-dashoffset:0;stroke-opacity:1;paint-order:normal"
       d="m 300.35742,241.07422 -1.45898,1.55664 c -15.38106,12.90352 -46.26991,48.14246 -65.22852,67.04883 l -0.13867,3.71875 3.34375,2.89648 12.13086,0.73828 0.19726,27.78321 c 0.13877,16.775 -0.11776,33.47509 0.28126,34.09765 l 1.64257,2.56446 48.91211,0.008 51.75196,-0.69727 -0.8125,-35.43945 0.16992,-29.5 9.38086,-0.28711 7.14453,-1.2832 0.99414,-3.47852 c 0.35518,-0.54678 -0.42672,-2.67198 -1.73828,-4.22266 -1.53557,-1.81551 -6.71791,-6.32972 -11.59766,-11.49804 l -8.75781,-9.27344 -0.9375,-15.23828 -0.20703,-18.83594 -13.83594,-0.48633 -12.76367,0.29102 -0.60156,5.50195 c -0.1707,2.0625 -0.0516,1.70703 -0.44727,1.70703 -1.0791,0 -15.08199,-16.58338 -14.29883,-15.84961 0.48036,0.45008 -2.1625,-1.88086 -3.125,-1.82226 z m 0.0469,8.04883 c 0.86505,0 4.45587,4.84484 9.2832,10.09375 4.82733,5.24891 8.8724,8.31149 9.49414,8.10742 0.62173,-0.20406 3.64807,-3.22409 4.07227,-5.91211 l 0.60351,-3.82227 7.75196,-0.25586 7.85156,0.1504 0.55468,13.87695 0.6875,17.27148 10.51954,9.88281 c 5.89742,6.15225 11.27539,11.02743 11.27539,11.50391 0,0.47647 -3.28578,0.86524 -7.30078,0.86524 h -7.30079 l -1.19921,1.20117 -1.19922,1.19922 -0.29297,30.75195 -0.14453,30.50781 -44.5625,0.0488 -45,0.29102 v -30.79883 -30.80078 l -1.20117,-1.19922 -1.19922,-1.20117 -5.64649,-0.14454 c -4.01366,-0.1037 -5.48242,0.0802 -5.48242,-0.37109 18.42068,-19.78363 41.35797,-43.88267 58.43555,-61.24609 z"
       sodipodi:nodetypes="ccccccccccccccccscccccccssccsscccccccsscccccccccccccc" />
    <path
       d="m 329.63815,315.00302 c -2.61394,-0.0138 -5.19928,0.38798 -5.85742,1.26953 l -1.40821,1.43164 -0.43554,8.16797 -0.43164,7.20508 -4.02735,0.32812 -4.39258,-0.11523 -0.66796,-7.03907 c -0.16264,-4.37393 -0.002,-9.26494 -0.59375,-9.97851 l -2.3418,-0.56836 h -20.67774 -20.67773 l -1.19922,1.20117 c -1.588,1.58798 -1.53885,8.27194 0.0703,9.60742 0.69829,0.57953 2.6998,1.81272 5.16602,1.95703 l 4.20117,0.2461 0.48242,17.51758 0.92774,17.82422 1.09961,1.32226 1.09765,1.32422 h 4.75586 4.75391 l 1.375,-0.91016 1.16601,-1.73632 0.82422,-17.92774 c 0.0913,-5.9754 0.20308,-6.01379 0.70703,-15.23047 l 1.03516,-0.70117 1.89258,0.72656 0.26367,15.06836 0.41016,18.06446 1.51172,1.80468 1.30468,0.8418 h 4.75586 4.75391 l 1.56836,-1.25391 c 0.59434,-0.71614 0.82192,-4.74465 0.98242,-9.66601 l 0.29102,-8.94727 4.90429,-0.63281 4.35547,0.54687 -0.0957,8.53907 c 0.1605,4.92136 0.60683,9.19011 1.20117,9.90625 l 1.63086,1.7832 5.33008,-0.27539 c 2.56924,-0.13258 5.94742,0.14047 6.60742,-0.51953 l 1.00586,-1.83203 v -23.14844 l -0.24414,-23.68359 -1.3457,-1.29688 c -0.77791,-0.77792 -3.42122,-1.20695 -6.03516,-1.2207 z m -40.54688,5.71093 17.87305,0.125 0.55664,6.88282 0.11719,8.05468 2.23633,2.34766 c 0.66332,0.42162 3.86616,0.43341 7.23633,0.44141 l 6.27343,-0.17969 3.00586,0.0547 c 0.5922,-0.71357 1.07898,-5.9224 0.69141,-10.70899 l 0.81445,-6.27929 1.83203,-0.41797 2.17969,0.89844 0.16602,19.73046 0.0117,19.8125 -2.24023,0.59571 -2.87695,-0.30469 -0.59571,-7.46094 c -0.1605,-4.92136 0.26231,-10.81706 -0.33203,-11.5332 l -1.66406,-0.96289 -6.94336,-0.20508 h -6.18555 l -3.29101,0.89258 c -0.59432,0.71614 -0.27252,6.02519 -0.61133,10.9375 l -0.42578,7.61914 -1.88867,0.96875 -2.83008,-0.42383 -0.17774,-16.36914 -0.37109,-17.82813 -1.58398,-1.76171 -1.58594,-0.93555 h -3.75391 l -3.75586,-0.24219 -1.29297,0.88477 -1.48828,1.85937 -0.85937,18.14063 -0.55664,15.30468 -2.04102,0.35547 c -1.66977,0.16357 -1.9061,-0.24984 -2.29883,-0.64257 -0.39273,-0.39274 -0.34377,-6.06272 -0.58203,-15.80079 l -0.4375,-17.88867 -0.82422,-1.88476 c -0.36359,-0.83144 -3.70834,-0.52004 -6.12695,-1.02344 l -3.18359,-0.30664 -0.42578,-0.95313 0.13671,-1.74414 z"
       style="opacity:0.919872;fill:#414141;fill-opacity:1;fill-rule:nonzero;stroke:none;stroke-width:2.26772;stroke-linecap:butt;stroke-linejoin:bevel;stroke-miterlimit:4;stroke-dasharray:none;stroke-dashoffset:0;stroke-opacity:1;paint-order:normal"
       id="path2291" />
  </g>
</svg>
