<?xml version="1.0" encoding="UTF-8" standalone="no"?>
<svg
   version="1.1"
   id="svg10"
   width="400"
   height="400"
   viewBox="0 0 400 400"
   sodipodi:docname="stamp_transparent.svg"
   inkscape:version="1.1 (c68e22c387, 2021-05-23)"
   xmlns:inkscape="http://www.inkscape.org/namespaces/inkscape"
   xmlns:sodipodi="http://sodipodi.sourceforge.net/DTD/sodipodi-0.dtd"
   xmlns="http://www.w3.org/2000/svg"
   xmlns:svg="http://www.w3.org/2000/svg"
   xmlns:rdf="http://www.w3.org/1999/02/22-rdf-syntax-ns#"
   xmlns:cc="http://creativecommons.org/ns#"
   xmlns:dc="http://purl.org/dc/elements/1.1/">
  <title
     id="title757">Toyhouse Thumbnail Stamp</title>
  <metadata
     id="metadata16">
    <rdf:RDF>
      <cc:Work
         rdf:about="">
        <dc:format>image/svg+xml</dc:format>
        <dc:type
           rdf:resource="http://purl.org/dc/dcmitype/StillImage" />
        <dc:title>Toyhouse Thumbnail Stamp</dc:title>
      </cc:Work>
    </rdf:RDF>
  </metadata>
  <defs
     id="defs14" />
  <sodipodi:namedview
     pagecolor="#ffffff"
     bordercolor="#666666"
     borderopacity="1"
     objecttolerance="10"
     gridtolerance="10"
     guidetolerance="10"
     inkscape:pageopacity="0"
     inkscape:pageshadow="2"
     inkscape:window-width="2560"
     inkscape:window-height="1417"
     id="namedview12"
     showgrid="false"
     inkscape:zoom="3.635"
     inkscape:cx="366.85007"
     inkscape:cy="336.86382"
     inkscape:window-x="2552"
     inkscape:window-y="-8"
     inkscape:window-maximized="1"
     inkscape:current-layer="layer1"
     inkscape:document-rotation="0"
     showguides="false"
     inkscape:pagecheckerboard="0" />
  <g
     inkscape:groupmode="layer"
     id="layer1"
     inkscape:label="Stamp 1" />
  <g
     inkscape:groupmode="layer"
     id="layer3"
     inkscape:label="Stamp">
    <path
       style="opacity:0.91987179;fill:none;fill-opacity:1;stroke:none;stroke-width:1px;stroke-linecap:butt;stroke-linejoin:miter;stroke-opacity:0"
       d="m 234.08573,300.83495 65.77083,-67.2125 20.14086,19.76305 0.35914,-9.36305 20,0.51737 0.97851,31.23263 22.0642,25.3191 -17.04271,0.4309 -1.5,62.5 -91.5,1 v -63.5 z"
       id="path911" />
    <path
       style="opacity:0.919872;fill:#cfcfcf;fill-opacity:1;fill-rule:nonzero;stroke:#000000;stroke-width:2.89133858;stroke-linejoin:bevel;stroke-miterlimit:4;stroke-dasharray:none;stroke-dashoffset:0;stroke-opacity:0.504032;paint-order:normal;stroke-linecap:butt"
       d="m 241.96971,310.36863 c 0,0.45125 1.46753,0.26727 5.48119,0.37097 l 5.64652,0.1459 1.2,1.2 1.2,1.2 v 30.8 30.8 l 45,-0.29179 44.56231,-0.0486 0.1459,-30.50821 0.29179,-30.75137 1.2,-1.2 1.2,-1.2 h 7.3 c 4.015,0 7.3,-0.38985 7.3,-0.86632 0,-0.47648 -5.37768,-5.35219 -11.2751,-11.50443 l -10.51857,-9.88156 -0.68776,-17.27248 -0.5551,-13.876 -7.85102,-0.15017 -7.75275,0.25454 -0.60317,3.82203 c -0.4242,2.68802 -3.45024,5.70841 -4.07197,5.91247 -0.62174,0.20407 -4.66743,-2.85752 -9.49476,-8.10643 -4.82733,-5.24891 -8.4187,-10.09369 -9.28375,-10.09369 -17.07758,17.36342 -40.01308,41.46154 -58.43376,61.24517 z m 58.38866,-69.29445 c 0.9625,-0.0586 3.60385,2.27308 3.12349,1.823 -0.78316,-0.73377 13.22097,15.84852 14.30007,15.84852 0.39566,0 0.27547,0.35504 0.44617,-1.70746 l 0.60216,-5.50075 12.76442,-0.29179 13.83433,0.48632 0.20821,18.83626 0.93769,15.23751 8.75684,9.27467 c 4.87975,5.16832 10.06184,9.68136 11.59741,11.49688 1.31156,1.55067 2.09492,3.6766 1.73974,4.22338 l -0.99522,3.47785 -7.14523,1.28401 -9.37943,0.28777 -0.17138,29.5002 0.81301,35.43918 -51.75174,0.69751 -48.91155,-0.008 -1.64358,-2.56452 c -0.399,-0.62256 -0.14246,-17.32319 -0.28123,-34.09819 l -0.19693,-27.78335 -12.13048,-0.73803 -3.34338,-2.89754 0.13755,-3.7171 c 18.95861,-18.90637 49.84899,-54.14678 65.23005,-67.0503 z m -18.17366,128.29563 -1.09866,-1.32379 -0.92716,-17.82305 -0.48365,-17.51872 -4.20075,-0.24581 c -2.46622,-0.14431 -4.46813,-1.3765 -5.16642,-1.95603 -1.60916,-1.33548 -1.6576,-8.02082 -0.0696,-9.6088 l 1.2,-1.2 h 20.67756 20.67755 l 2.34116,0.5679 c 0.59221,0.71357 0.4317,5.60555 0.59434,9.97948 l 0.66805,7.03839 4.39132,0.11608 4.02729,-0.32996 0.43283,-7.20322 0.43422,-8.16954 1.40979,-1.43135 c 1.31628,-1.7631 10.33599,-1.60445 11.8918,-0.0486 l 1.34589,1.29727 0.24316,23.68358 v 23.14863 l -1.00547,1.83222 c -0.66,0.66 -4.0378,0.38657 -6.60704,0.51915 l -5.33092,0.2751 -1.63084,-1.7835 c -0.59434,-0.71614 -1.04,-4.98476 -1.2005,-9.90612 l 0.0958,-8.53873 -4.35598,-0.54675 -4.90274,0.63221 -0.29182,8.94793 c -0.1605,4.92136 -0.38904,8.95028 -0.98338,9.66642 l -1.56695,1.25344 h -4.75511 -4.75511 l -1.30498,-0.84237 -1.51132,-1.80522 -0.41134,-18.06376 -0.26199,-15.06812 -1.89282,-0.72603 -1.03556,0.70099 c -0.50395,9.21668 -0.61532,9.25531 -0.70658,15.23071 l -0.824,17.92621 -1.16744,1.73644 -1.37375,0.91115 h -4.75511 -4.75511 z m 8.45693,-20.03362 0.86083,-18.14089 1.48771,-1.85874 1.29318,-0.88611 3.75511,0.24316 h 3.75511 l 1.58497,0.93475 1.58498,1.76147 0.37105,17.82895 0.17653,16.36998 2.83094,0.42244 1.88824,-0.96776 0.42592,-7.61961 c 0.33881,-4.91231 0.0167,-10.22162 0.61102,-10.93776 l 3.29123,-0.89287 h 6.18634 l 6.94287,0.20632 1.66421,0.96165 c 0.59434,0.71614 0.17196,6.61178 0.33246,11.53314 l 0.59541,7.46192 2.87613,0.30362 2.24046,-0.59538 -0.0118,-19.813 -0.16608,-19.72896 -2.18003,-0.89898 -1.83126,0.41755 -0.81398,6.28042 c 0.38757,4.78659 -0.0994,9.99538 -0.6916,10.70895 l -3.00531,-0.0559 -6.27345,0.17922 c -3.37016,-0.008 -6.57301,-0.0198 -7.23633,-0.44142 l -2.23768,-2.34635 -0.11611,-8.0555 -0.55728,-6.88144 -17.87298,-0.12575 -18.09874,0.049 -0.13754,1.74347 0.42517,0.95284 3.184,0.30731 c 2.41861,0.5034 6.07028,0.11801 6.12726,1.02368 l 0.82359,1.88389 0.43769,17.88873 c 0.23826,9.73807 0.18967,15.40794 0.5824,15.80068 0.39273,0.39273 0.62862,0.8067 2.29839,0.64313 l 2.04214,-0.35539 z"
       id="path524"
       sodipodi:nodetypes="cscccccccccccssscccccsssccccsscccccssscccccccsscccccccccssscccsscccccsscccsscsscccssccccccccccccccccccccccccccccsscccsscccccccssccscccccccsscssscccc" />
  </g>
</svg>
